<svg xmlns="http://www.w3.org/2000/svg" viewBox="0 0 64 64" x="0px" y="0px">
	<g>
		<path fill="#13dd9d" d="M56,26h3.89A5.006,5.006,0,0,0,56,22.1Z">
		</path>
		<path fill="#13dd9d" d="M47,4c-5.3,0-9,3.29-9,8v4.764L39.618,20h2.493A6.973,6.973,0,0,1,40,15V14a7,7,0,0,1,14,0v1a6.973,6.973,0,0,1-2.111,5h2.493L56,16.764V13A9.01,9.01,0,0,0,47,4Z">
		</path>
		<path fill="#13dd9d" d="M59,14H58v2h1a1,1,0,0,0,0-2Z">
		</path>
		<rect fill="#13dd9d" x="40" y="22" width="14" height="2">
		</rect>
		<rect fill="#13dd9d" x="48" y="26" width="2" height="2">
		</rect>
		<rect fill="#13dd9d" x="44" y="26" width="2" height="2">
		</rect>
		<path fill="#13dd9d" d="M52,15V14a5,5,0,0,0-10,0v1a5,5,0,0,0,10,0Zm-5,2H45V15h2Zm3-3H48V12h2Z">
		</path>
		<path fill="#13dd9d" d="M48,51h6V26H52v9a1,1,0,0,1-1,1H43a1,1,0,0,1-1-1V26H40V51h6V44h2Z">
		</path>
		<path fill="#13dd9d" d="M56,39.829A3.006,3.006,0,0,0,58,37H56Z">
		</path>
		<path fill="#13dd9d" d="M56,35h3a1,1,0,0,0,1-1V32H56Z">
		</path>
		<path fill="#13dd9d" d="M38,22.1A5.008,5.008,0,0,0,34,27h2v2H34v5a1,1,0,0,0,1,1h3Z">
		</path>
		<rect fill="#13dd9d" x="56" y="28" width="4" height="2">
		</rect>
		<path fill="#13dd9d" d="M55,57a1,1,0,0,1-1-1V53H48v7H58A3,3,0,0,0,55,57Z">
		</path>
		<rect fill="#13dd9d" x="44" y="30" width="6" height="4">
		</rect>
		<path fill="#13dd9d" d="M40,56a1,1,0,0,1-1,1,3,3,0,0,0-3,3H46V53H40Z">
		</path>
		<path fill="#13dd9d" d="M38,39.829V37H36A3.006,3.006,0,0,0,38,39.829Z">
		</path>
		<path fill="#13dd9d" d="M20.447,57.9a1,1,0,0,1-1.154-.188l-2-2A7.178,7.178,0,0,0,13,54a4.665,4.665,0,0,0-3.293,1.707l-1,1A1,1,0,0,1,8,57a4.005,4.005,0,0,0-3.873,3H26.382l-.247-.494A4.889,4.889,0,0,0,20.447,57.9Z">
		</path>
		<rect fill="#13dd9d" x="15" y="7" width="4" height="4">
		</rect>
		<path fill="#13dd9d" d="M21,12a1,1,0,0,1-1,1H15v6H32V7H21Z">
		</path>
		<path fill="#13dd9d" d="M11,5V52.4a5.32,5.32,0,0,1,2-.4V5a.959.959,0,0,0-.287-.693A.977.977,0,0,0,12,4,1,1,0,0,0,11,5Z">
		</path>
	</g>
</svg>
