<svg xmlns="http://www.w3.org/2000/svg" xmlns:xlink="http://www.w3.org/1999/xlink" version="1.1" x="0px" y="0px" viewBox="0 0 100 100" style="enable-background:new 0 0 100 100;" xml:space="preserve">
	<g>
		<polygon fill="#6c757d" points="49.7080078,41.5068359 49.7080078,38.1108398 46.5205078,38.1108398 46.5205078,41.5068359 46.5205078,52.8818359    49.7080078,52.8818359  ">
		</polygon>
		<polygon fill="#adb5bd" points="45.0205078,42.2568359 41.8330078,42.2568359 41.8330078,45.8608398 41.8330078,52.8818359 45.0205078,52.8818359     ">
		</polygon>
		<rect fill="#2e3235" x="37.1455078" y="46.6108398" width="3.1875" height="6.2709961">
		</rect>
		<polygon fill="#13dd9d" points="35.6455078,45.8608398 35.6455078,42.2568359 32.4580078,42.2568359 32.4580078,52.8818359 35.6455078,52.8818359     ">
		</polygon>
		<rect fill="#13dd9d" x="51.2080078" y="42.2568359" width="3.1875" height="10.625">
		</rect>
		<path fill="#2e3235" d="M85.5,67.6674805h-6.0693359H58.7510376l-2.7754517,3.2412109c-0.1425781,0.1665039-0.3505859,0.262207-0.5693359,0.262207   h-10.8125c-0.21875,0-0.4267578-0.0957031-0.5693359-0.262207l-2.7754517-3.2412109H20.5693359H14.5   c-0.6894531,0-1.25,0.5605469-1.25,1.25v4.0073242c0,1.2407227,1.0097656,2.25,2.25,2.25h69c1.2402344,0,2.25-1.0092773,2.25-2.25   v-4.0073242C86.75,68.2280273,86.1894531,67.6674805,85.5,67.6674805z M19.4375,72.1708984h-2.125   c-0.4140625,0-0.75-0.3359375-0.75-0.75s0.3359375-0.75,0.75-0.75h2.125c0.4140625,0,0.75,0.3359375,0.75,0.75   S19.8515625,72.1708984,19.4375,72.1708984z M25.9375,72.1708984h-2.125c-0.4140625,0-0.75-0.3359375-0.75-0.75   s0.3359375-0.75,0.75-0.75h2.125c0.4140625,0,0.75,0.3359375,0.75,0.75S26.3515625,72.1708984,25.9375,72.1708984z">
		</path>
		<path fill="#adb5bd" d="M20.5693359,66.1674805h58.8613281c0.6894531,0,1.25-0.5605469,1.25-1.25V26.0751953c0-0.6894531-0.5605469-1.25-1.25-1.25   H20.5693359c-0.6894531,0-1.25,0.5605469-1.25,1.25v38.8422852C19.3193359,65.6069336,19.8798828,66.1674805,20.5693359,66.1674805   z M51.0625,64.1206055h-2.125c-0.4140625,0-0.75-0.3359375-0.75-0.75s0.3359375-0.75,0.75-0.75h2.125   c0.4140625,0,0.75,0.3359375,0.75,0.75S51.4765625,64.1206055,51.0625,64.1206055z M49.8369141,26.8720703h0.3261719   c0.4140625,0,0.75,0.3359375,0.75,0.75s-0.3359375,0.75-0.75,0.75h-0.3261719c-0.4140625,0-0.75-0.3359375-0.75-0.75   S49.4228516,26.8720703,49.8369141,26.8720703z M23.4169922,31.168457c0-0.4140625,0.3359375-0.75,0.75-0.75h51.6660156   c0.4140625,0,0.75,0.3359375,0.75,0.75v28.6557617c0,0.4140625-0.3359375,0.75-0.75,0.75H24.1669922   c-0.4140625,0-0.75-0.3359375-0.75-0.75V31.168457z">
		</path>
		<path fill="#2e3235" d="M61.7919922,40.3818359h6.5c0.4140625,0,0.75-0.3359375,0.75-0.75s-0.3359375-0.75-0.75-0.75h-6.5   c-0.4140625,0-0.75,0.3359375-0.75,0.75S61.3779297,40.3818359,61.7919922,40.3818359z">
		</path>
		<path fill="#f8f9fa" d="M61.7919922,44.3818359h6.5c0.4140625,0,0.75-0.3359375,0.75-0.75s-0.3359375-0.75-0.75-0.75h-6.5   c-0.4140625,0-0.75,0.3359375-0.75,0.75S61.3779297,44.3818359,61.7919922,44.3818359z">
		</path>
		<path fill="#6c757d" d="M61.7919922,48.3818359h6.5c0.4140625,0,0.75-0.3359375,0.75-0.75s-0.3359375-0.75-0.75-0.75h-6.5   c-0.4140625,0-0.75,0.3359375-0.75,0.75S61.3779297,48.3818359,61.7919922,48.3818359z">
		</path>
		<path fill="#13dd9d" d="M61.7919922,52.3818359h6.5c0.4140625,0,0.75-0.3359375,0.75-0.75s-0.3359375-0.75-0.75-0.75h-6.5   c-0.4140625,0-0.75,0.3359375-0.75,0.75S61.3779297,52.3818359,61.7919922,52.3818359z">
		</path>
	</g>
</svg>
