<svg xmlns="http://www.w3.org/2000/svg" xmlns:xlink="http://www.w3.org/1999/xlink" version="1.1" x="0px" y="0px" viewBox="0 0 128 128" style="enable-background:new 0 0 128 128;" xml:space="preserve">
	<g>
		<g>
			<rect fill="#adb5bd" x="66.138" y="87.506" width="17.103" height="17.077">
			</rect>
			<rect fill="#adb5bd" x="87.517" y="66.143" width="17.103" height="17.077">
			</rect>
			<path fill="#39c599" d="M61.862,66.143H44.759V83.22h17.103V66.143z M51.199,77.82v-6.037h4.276v6.037H51.199z">
			</path>
			<rect fill="#adb5bd" x="44.759" y="87.506" width="17.103" height="17.077">
			</rect>
			<rect fill="#6c757d" x="87.517" y="4" width="17.103" height="15.131">
			</rect>
			<rect fill="#adb5bd" x="87.517" y="23.417" width="17.103" height="17.077">
			</rect>
			<rect fill="#6c757d" x="108.897" y="23.417" width="17.103" height="17.077">
			</rect>
			<rect fill="#adb5bd" x="108.897" y="44.78" width="17.103" height="17.077">
			</rect>
			<rect fill="#adb5bd" x="108.897" y="66.143" width="17.103" height="17.077">
			</rect>
			<rect fill="#adb5bd" x="2" y="44.78" width="17.103" height="17.077">
			</rect>
			<rect fill="#adb5bd" x="66.138" y="23.417" width="17.103" height="17.077">
			</rect>
			<path fill="#2e3235" d="M44.759,40.494h17.103V23.417H44.759V40.494z M55.474,28.937v6.037h-4.276v-6.037H55.474z">
			</path>
			<path fill="#2e3235" d="M104.621,44.78H87.517v17.077h17.103V44.78z M93.931,56.715v-6.037h4.276v6.037H93.931z">
			</path>
			<rect fill="#adb5bd" x="108.897" y="23.417" width="17.103" height="17.077">
			</rect>
			<rect fill="#adb5bd" x="66.138" y="44.78" width="17.103" height="17.077">
			</rect>
			<rect fill="#adb5bd" x="23.379" y="66.143" width="17.103" height="17.077">
			</rect>
			<rect fill="#adb5bd" x="2" y="66.143" width="17.103" height="17.077">
			</rect>
			<rect fill="#adb5bd" x="44.759" y="44.78" width="17.103" height="17.077">
			</rect>
			<rect fill="#6c757d" x="66.138" y="4" width="17.103" height="15.131">
			</rect>
			<rect fill="#adb5bd" x="23.379" y="44.78" width="17.103" height="17.077">
			</rect>
			<rect fill="#adb5bd" x="66.138" y="66.143" width="17.103" height="17.077">
			</rect>
			<rect fill="#adb5bd" x="108.897" y="87.506" width="17.103" height="17.077">
			</rect>
			<rect fill="#f8f9fa" x="87.517" y="108.869" width="17.103" height="15.131">
			</rect>
			<rect fill="#6c757d" x="2" y="4" width="17.103" height="15.131">
			</rect>
			<rect fill="#6c757d" x="44.759" y="4" width="17.103" height="15.131">
			</rect>
			<rect fill="#6c757d" x="108.897" y="4" width="17.103" height="15.131">
			</rect>
			<rect fill="#f8f9fa" x="2" y="108.869" width="17.103" height="15.131">
			</rect>
			<rect fill="#f8f9fa" x="108.897" y="108.869" width="17.103" height="15.131">
			</rect>
			<path fill="#39c599" d="M87.517,87.506v17.077h17.103V87.506H87.517z M93.931,99.063v-6.037h4.276v6.037H93.931z">
			</path>
			<rect fill="#f8f9fa" x="66.138" y="108.869" width="17.103" height="15.131">
			</rect>
			<rect fill="#adb5bd" x="2" y="87.506" width="17.103" height="17.077">
			</rect>
			<rect fill="#adb5bd" x="2" y="23.417" width="17.103" height="17.077">
			</rect>
			<rect fill="#adb5bd" x="23.379" y="23.417" width="17.103" height="17.077">
			</rect>
			<rect fill="#adb5bd" x="23.379" y="87.506" width="17.103" height="17.077">
			</rect>
			<rect fill="#6c757d" x="23.379" y="4" width="17.103" height="15.131">
			</rect>
			<rect fill="#f8f9fa" x="44.759" y="108.869" width="17.103" height="15.131">
			</rect>
			<rect fill="#f8f9fa" x="23.379" y="108.869" width="17.103" height="15.131">
			</rect>
		</g>
	</g>
</svg>
