<svg xmlns="http://www.w3.org/2000/svg" xmlns:xlink="http://www.w3.org/1999/xlink" version="1.1" x="0px" y="0px" viewBox="0 0 76 76" enable-background="new 0 0 76 76" xml:space="preserve">
	<g>
		<rect fill="#39c599" x="21.2692871" y="48.6933594" width="5.3300781" height="5.3291016">
		</rect>
		<rect fill="#f8f9fa" x="21.2692871" y="35.4833984" width="5.3300781" height="5.3300781">
		</rect>
		<rect fill="#39c599" x="21.2692871" y="22.2744141" width="5.3300781" height="5.3300781">
		</rect>
		<path fill="#6c757d" d="M50.0046387,18.1337891H17.2067871v45.4082031h24.7734375v-7.3583984c0-0.5527344,0.4472656-1,1-1h7.0244141V18.1337891z    M28.5993652,56.0224609h-9.3300781v-9.3291016h9.3300781V56.0224609z M28.5993652,42.8134766h-9.3300781v-9.3300781h9.3300781   V42.8134766z M28.5993652,29.6044922h-9.3300781v-9.3300781h9.3300781V29.6044922z M38.9421387,55.1904297h-6.5820313v-2h6.5820313   V55.1904297z M46.9421387,49.5253906H32.3601074v-2h14.5820313V49.5253906z M46.9421387,41.9814453H32.3601074v-2h14.5820313   V41.9814453z M46.9421387,36.3164063H32.3601074v-2h14.5820313V36.3164063z M46.9421387,28.7724609H32.3601074v-2h14.5820313   V28.7724609z M46.9421387,23.1074219H32.3601074v-2h14.5820313V23.1074219z">
		</path>
		<polygon fill="#6c757d" points="48.6582031,57.1835938 43.9802246,57.1835938 43.9802246,62.0562744  ">
		</polygon>
		<path fill="#2e3235" d="M58.7349854,71.0599976V10.6199951H45.7949219v5.5100098h5.210083c0.5499268,0,1,0.4500122,1,1v39.0500488   c0,0.3299561-0.1400146,0.4899902-0.210083,0.5899658c-0.0299072,0.0300293-0.039917,0.0700073-0.0699463,0.1099854   l-8.0198975,8.3500366c-0.0100098,0.0100098-0.0100098,0.0100098-0.0100098,0.0100098   c-0.2000732,0.1999512-0.4500732,0.2999878-0.710083,0.2999878H16.2050781c-0.5500488,0-1-0.4500122-1-1V17.1300049   c0-0.5499878,0.4499512-1,1-1h5.2199707v-5.5100098H8.4849854v6.5h-2.039917v2h2.039917v5.5800171h-2.039917v2h2.039917v5.5700073   h-2.039917v2h2.039917v5.5700073h-2.039917v2h2.039917v5.5700073h-2.039917v2h2.039917v5.5700073h-2.039917v2h2.039917v5.5700073   h-2.039917v2h2.039917v6.5099487H58.7349854z">
		</path>
		<rect fill="#6c757d" x="66.1452637" y="27.4189453" width="3.409668" height="31.9443359">
		</rect>
		<path fill="#39c599" d="M69.5449219,24.4900513c-0.0200195-2.4100342-1.9899902-4.3800049-4.4399414-4.3800049   c-2.4299316,0.0199585-4.3900146,2.0099487-4.3699951,4.4400024l0.0002441,0.8688965h8.8145752L69.5449219,24.4900513z">
		</path>
		<polygon fill="#6c757d" points="64.1452637,27.4189453 60.7358398,27.4189453 60.7446289,59.3632813 64.1452637,59.3632813  ">
		</polygon>
		<path fill="#adb5bd" d="M64.5349121,69.6500244C64.6950684,70.0100098,65.0549316,70.25,65.4450684,70.25h0.0299072   c0.4100342-0.0199585,0.7700195-0.2799683,0.9100342-0.6599731l3.0422363-8.2267456h-8.5598145L64.5349121,69.6500244z">
		</path>
		<path fill="#adb5bd" d="M40.7949219,6.960022h-4.3398438c-0.420166-1.1799927-1.5300293-2.0200195-2.8400879-2.0200195   c-1.3200684,0-2.4399414,0.8400269-2.8499756,2.0200195h-4.3399658c-1.6600342,0-3,1.3400269-3,3v6.1799927h20.369873V9.960022   C43.7949219,8.3000488,42.4450684,6.960022,40.7949219,6.960022z M33.6052246,8.8837891   c-0.5361328,0-0.9716797-0.4355469-0.9716797-0.9716797s0.4355469-0.9716797,0.9716797-0.9716797   s0.9726563,0.4355469,0.9726563,0.9716797S34.1413574,8.8837891,33.6052246,8.8837891z">
		</path>
	</g>
</svg>
