<svg xmlns="http://www.w3.org/2000/svg" viewBox="0 0 512 512" x="0px" y="0px">
	<path fill="#2e3235" d="M241,298.52V472a10,10,0,0,1-20,0V451a15,15,0,0,0-30,0v21a40,40,0,0,0,80,0V298.53a44.17,44.17,0,0,1-30,0Z">
	</path>
	<path fill="#13dd9d" d="M189.17,7.78a255.16,255.16,0,0,0-27.23,9c-49,84.54-66.07,222.75-67.86,238.36l.71,7.46c12-6.94,24.09-8.92,35.88-5.84a48.8,48.8,0,0,1,13.23,5.72l.1-32.13c-.2-4.4-1.47-37.8,4.42-83C153.38,109.4,164.46,56.64,189.17,7.78Z">
	</path>
	<path fill="#f8f9fa" d="M322.83,7.78c24.71,48.86,35.79,101.62,40.75,139.59,5.89,45.17,4.62,78.57,4.42,83l.1,32.13a48.8,48.8,0,0,1,13.23-5.72c11.79-3.08,23.83-1.1,35.88,5.84l.71-7.47c-1.79-15.6-18.85-153.81-67.86-238.35A255.16,255.16,0,0,0,322.83,7.78Z">
	</path>
	<path fill="#6c757d" d="M284.45.57c-1.94-.21-3.87-.4-5.81-.57H233.36c-1.94.17-3.87.36-5.81.57C167.75,96.93,173.91,227.9,174,229.21c0,.28,0,.56,0,.83l-.1,34c40.21-19,72.12,2.27,73.46,3.18a14.74,14.74,0,0,0,8.67,2.89,14.49,14.49,0,0,0,8.53-2.83c1.42-1,33.33-22.24,73.54-3.24l-.1-34c0-.27,0-.55,0-.82C338.09,227.9,344.1,96.71,284.45.57Z">
	</path>
	<path fill="#adb5bd" d="M64.08,253.44c.63-6.05,13.09-121.2,52.86-213.46A258.64,258.64,0,0,0,75,74,254.33,254.33,0,0,0,0,255a15,15,0,0,0,25.43,10.78c8.66-8.38,17.56-10.9,28-7.93a43.38,43.38,0,0,1,11.27,5.2l-.63-6.63A14.84,14.84,0,0,1,64.08,253.44Z">
	</path>
	<path fill="#adb5bd" d="M437,74a258.64,258.64,0,0,0-42-34c39.77,92.26,52.23,207.41,52.86,213.46a14.84,14.84,0,0,1,0,3L447.3,263a43.78,43.78,0,0,1,10.51-5c10.75-3.33,19.89-.88,28.76,7.7A15,15,0,0,0,512,255,254.33,254.33,0,0,0,437,74Z">
	</path>
</svg>
