<svg xmlns="http://www.w3.org/2000/svg" data-name="Layer 1" viewBox="0 0 64 64" x="0px" y="0px">
	<path fill="#b038e3" d="M29.842,23.744l1.451-1.451a1,1,0,0,1,1.575.211L35.6,27.287a16.821,16.821,0,0,0-1.5-8.84A1,1,0,0,1,35,17h1.919A9.619,9.619,0,0,0,30,14c-3.624,0-6.073,2.53-7.266,4.142C26.773,18.568,29.22,19.771,29.842,23.744Z">
	</path>
	<path fill="#b038e3" d="M20,19c-1.219-1.614-4.451-5-8-5a9.616,9.616,0,0,0-6.918,3H7A1,1,0,0,1,7.9,18.447a21.46,21.46,0,0,0-2.01,13.028L7.02,25.8a1,1,0,0,1,1.687-.511l1.516,1.516a11.066,11.066,0,0,1,6.651-7.972,3.846,3.846,0,0,1,3.082.144A.336.336,0,0,0,20,19Z">
	</path>
	<path fill="#b038e3" d="M37.336,36.1,36,34.537,34.664,36.1A15.223,15.223,0,0,0,31.045,45h9.91A15.223,15.223,0,0,0,37.336,36.1Z">
	</path>
	<path fill="#b038e3" d="M33.619,34.241A12.023,12.023,0,0,0,24.042,45h5a17.222,17.222,0,0,1,4.1-10.207Z">
	</path>
	<path fill="#b038e3" d="M42.955,45h5a12.023,12.023,0,0,0-9.577-10.759l.473.552A17.222,17.222,0,0,1,42.955,45Z">
	</path>
	<path fill="#b038e3" d="M20.343,36H18V34h2.91A34.364,34.364,0,0,0,22,25.443s-.182-5.377-.28-5.385H20.28c-.1.007-.693,4.956-1.081,6.942H21v2H18.76a42.853,42.853,0,0,1-3.78,10H19.2C19.628,38.016,20.013,37.018,20.343,36Z">
	</path>
	<path fill="#b038e3" d="M12.5,51H8V49h5.368a22.757,22.757,0,0,1,1.991-3.272A34.612,34.612,0,0,0,18.273,41H13.832a31.578,31.578,0,0,1-2.825,3.9l2.044.1-.1,2-3.686-.19C6.5,49.769,4.867,51.915,4.268,55h7.107A22.2,22.2,0,0,1,12.5,51Z">
	</path>
	<path fill="#b038e3" d="M11.1,57H4.027C4.01,57.323,4,62,4,62h7S11.039,57.677,11.1,57Z">
	</path>
	<circle fill="#b038e3" cx="53" cy="24" r="5">
	</circle>
	<rect fill="#b038e3" x="59" y="23" width="3" height="2">
	</rect>
	<rect fill="#b038e3" x="52" y="15" width="2" height="3">
	</rect>
	<rect fill="#b038e3" x="52" y="30" width="2" height="3">
	</rect>
	<rect fill="#b038e3" x="44" y="23" width="3" height="2">
	</rect>
	<rect fill="#b038e3" x="56.803" y="17.697" width="3" height="2" transform="translate(3.856 46.703) rotate(-45)">
	</rect>
	<rect fill="#b038e3" x="46.697" y="17.197" width="2" height="3" transform="translate(0.749 39.203) rotate(-45)">
	</rect>
	<rect fill="#b038e3" x="57.303" y="27.803" width="2" height="3" transform="translate(-3.644 49.809) rotate(-45)">
	</rect>
	<rect fill="#b038e3" x="46.197" y="28.303" width="3" height="2" transform="translate(-6.75 42.309) rotate(-45)">
	</rect>
	<rect fill="#b038e3" x="35" y="46" width="2" height="16">
	</rect>
	<path fill="#b038e3" d="M62,58H42.618L39.9,52.553l-1.79.894,3,6A1,1,0,0,0,42,60h2v2h2V60H57v2h2V60h3Z">
	</path>
	<path fill="#b038e3" d="M21,13h0a7.715,7.715,0,0,1,3.491-9.138L26,3V6L29.63,5.4A16.49,16.49,0,0,1,44,10H32l4,4-2.623-.656a12,12,0,0,0-9.887,1.877L21,17Z">
	</path>
	<path fill="#b038e3" d="M19.466,11.124a8.649,8.649,0,0,0-7.318-7.855l-.1-.013L10,3l2,4H3L4.764,8.764A13.4,13.4,0,0,0,10,12h0L7,13l4.2-.42A9.2,9.2,0,0,1,20,17h0Z">
	</path>
</svg>
