<svg xmlns="http://www.w3.org/2000/svg" viewBox="0 0 60 60" x="0px" y="0px">
	<circle fill="#9400D3" cx="18" cy="15" r="1">
	</circle>
	<path fill="#9400D3" d="M18,20a5,5,0,1,0-5-5A5.00589,5.00589,0,0,0,18,20Zm0-8a3,3,0,1,1-3,3A3.00328,3.00328,0,0,1,18,12Z">
	</path>
	<path fill="#9400D3" d="M2,28v2a3.00328,3.00328,0,0,0,3,3H8V25H5A3.00328,3.00328,0,0,0,2,28Z">
	</path>
	<path fill="#9400D3" d="M27.69531,20a11.07472,11.07472,0,0,1-2.96411-3.10071A6.9998,6.9998,0,0,1,22.8894,20Z">
	</path>
	<path fill="#9400D3" d="M34,20a9,9,0,1,0-9-9A9.01015,9.01015,0,0,0,34,20ZM34,6a5,5,0,1,1-5,5A5.00589,5.00589,0,0,1,34,6Z">
	</path>
	<circle fill="#9400D3" cx="34" cy="11" r="3">
	</circle>
	<rect fill="#9400D3" x="15" y="27" width="26" height="4" rx="1" ry="1">
	</rect>
	<path fill="#9400D3" d="M43,22H13a3.00328,3.00328,0,0,0-3,3V43a3.00328,3.00328,0,0,0,3,3H43a3.00328,3.00328,0,0,0,3-3V25A3.00328,3.00328,0,0,0,43,22ZM22,41H15a1,1,0,0,1,0-2h7a1,1,0,0,1,0,2Zm6,0H26a1,1,0,0,1,0-2h2a1,1,0,0,1,0,2Zm4.91992-.62012a1.15386,1.15386,0,0,1-.21.33008,1.5345,1.5345,0,0,1-.15039.11963.75629.75629,0,0,1-.17969.09033.65979.65979,0,0,1-.17969.06006A1.40433,1.40433,0,0,1,32,41a1.05235,1.05235,0,0,1-.71-.29,1.15386,1.15386,0,0,1-.21-.33008.94226.94226,0,0,1,0-.76025,1.02671,1.02671,0,0,1,.21-.32959,1.00851,1.00851,0,0,1,.91016-.27.64194.64194,0,0,1,.17969.05957.75629.75629,0,0,1,.17969.09033c.0498.04.10059.08008.15039.12012a1.02671,1.02671,0,0,1,.21.32959.94226.94226,0,0,1,0,.76025ZM39,44a4,4,0,1,1,4-4A4.00427,4.00427,0,0,1,39,44Zm4-14a3.00328,3.00328,0,0,1-3,3H16a3.00328,3.00328,0,0,1-3-3V28a3.00328,3.00328,0,0,1,3-3H40a3.00328,3.00328,0,0,1,3,3Z">
	</path>
	<circle fill="#9400D3" cx="39" cy="40" r="2">
	</circle>
	<path fill="#9400D3" d="M57.585,26.96387a.98678.98678,0,0,0-.90137-.1377L48,29.7207V37.2793l8.68359,2.89453A1.00015,1.00015,0,0,0,58,39.2251V27.7749A.98922.98922,0,0,0,57.585,26.96387Z">
	</path>
	<path fill="#9400D3" d="M31.97729,50.0014A5.0044,5.0044,0,0,0,32.89526,48H23.10474a4.987,4.987,0,0,0,.999,2.11566l-6.87231,8.2442a1.00023,1.00023,0,0,0,1.53711,1.28027L25.645,51.39087A4.98883,4.98883,0,0,0,27,51.855V59a1,1,0,0,0,2,0V51.85889a4.999,4.999,0,0,0,1.47534-.535l6.926,8.31628a1.00023,1.00023,0,0,0,1.53711-1.28027Z">
	</path>
</svg>
