<svg xmlns="http://www.w3.org/2000/svg" xmlns:xlink="http://www.w3.org/1999/xlink" xml:space="preserve" version="1.1" style="shape-rendering:geometricPrecision;text-rendering:geometricPrecision;image-rendering:optimizeQuality;" viewBox="0 0 270.9 311.73" x="0px" y="0px" fill-rule="evenodd" clip-rule="evenodd">
	<g>
		<path fill="#b038e3" d="M4.74 110.57l151.94 0c3.44,-3.23 7.98,-5.88 13.22,-7.67l-29.02 -46.87c-2.09,-3.38 3.06,-6.55 5.14,-3.18l29.98 48.42c7.53,-1.49 15.69,-1.26 23.1,0.73l60.26 -100.52c2.04,-3.41 7.22,-0.3 5.19,3.1l-59.6 99.43c4.02,1.7 7.52,3.94 10.31,6.56l50.93 0c2.61,0 4.74,2.13 4.74,4.74l0 171.39c0,2.61 -2.13,4.73 -4.74,4.73l-21.36 0 0 12.82c0,9.98 -15.17,9.98 -15.17,0l0 -12.82 -188.37 0 0 12.82c0,9.98 -15.17,9.98 -15.17,0l0 -12.82 -21.36 0c-2.61,0 -4.74,-2.13 -4.74,-4.73l0 -171.39c0,-2.61 2.13,-4.74 4.74,-4.74zm47.64 35.8c58.41,-12.22 113.04,-10.17 165.5,0 5.84,36.83 5.24,73.66 0,110.49 -55.16,9.79 -110.33,9.36 -165.5,0 -5.08,-38.48 -4.25,-75.04 0,-110.49zm183.38 -10.15l19.74 0c5.75,0 5.75,8.69 0,8.69l-19.74 0c-5.75,0 -5.75,-8.69 0,-8.69zm0 13.23l19.74 0c5.75,0 5.75,8.69 0,8.69l-19.74 0c-5.75,0 -5.75,-8.69 0,-8.69zm0 13.23l19.74 0c5.75,0 5.75,8.69 0,8.69l-19.74 0c-5.75,0 -5.75,-8.69 0,-8.69zm0 13.23l19.74 0c5.75,0 5.75,8.69 0,8.69l-19.74 0c-5.75,0 -5.75,-8.69 0,-8.69zm0 13.23l19.74 0c5.75,0 5.75,8.69 0,8.69l-19.74 0c-5.75,0 -5.75,-8.69 0,-8.69zm0 13.23l19.74 0c5.75,0 5.75,8.69 0,8.69l-19.74 0c-5.75,0 -5.75,-8.69 0,-8.69zm0 13.23l19.74 0c5.75,0 5.75,8.69 0,8.69l-19.74 0c-5.75,0 -5.75,-8.69 0,-8.69zm0 13.23l19.74 0c5.75,0 5.75,8.69 0,8.69l-19.74 0c-5.75,0 -5.75,-8.69 0,-8.69zm9.87 17.26c6.87,0 12.44,5.57 12.44,12.44 0,6.87 -5.57,12.44 -12.44,12.44 -6.87,0 -12.44,-5.57 -12.44,-12.44 0,-6.87 5.57,-12.44 12.44,-12.44zm0 3.55c4.91,0 8.89,3.98 8.89,8.89 0,4.91 -3.98,8.89 -8.89,8.89 -4.91,0 -8.89,-3.98 -8.89,-8.89 0,-4.91 3.98,-8.89 8.89,-8.89zm-1.52 2.13c0,-2 3.04,-2 3.04,0l0 13.53c0,2 -3.04,2 -3.04,0l0 -13.53zm-228.7 -115.54l19.74 0c5.75,0 5.75,8.69 0,8.69l-19.74 0c-5.75,0 -5.75,-8.69 0,-8.69zm0 13.23l19.74 0c5.75,0 5.75,8.69 0,8.69l-19.74 0c-5.75,0 -5.75,-8.69 0,-8.69zm0 13.23l19.74 0c5.75,0 5.75,8.69 0,8.69l-19.74 0c-5.75,0 -5.75,-8.69 0,-8.69zm0 13.23l19.74 0c5.75,0 5.75,8.69 0,8.69l-19.74 0c-5.75,0 -5.75,-8.69 0,-8.69zm0 13.23l19.74 0c5.75,0 5.75,8.69 0,8.69l-19.74 0c-5.75,0 -5.75,-8.69 0,-8.69zm0 13.23l19.74 0c5.75,0 5.75,8.69 0,8.69l-19.74 0c-5.75,0 -5.75,-8.69 0,-8.69zm0 13.23l19.74 0c5.75,0 5.75,8.69 0,8.69l-19.74 0c-5.75,0 -5.75,-8.69 0,-8.69zm0 13.23l19.74 0c5.75,0 5.75,8.69 0,8.69l-19.74 0c-5.75,0 -5.75,-8.69 0,-8.69zm9.87 17.26c6.87,0 12.44,5.57 12.44,12.44 0,6.87 -5.57,12.44 -12.44,12.44 -6.87,0 -12.44,-5.57 -12.44,-12.44 0,-6.87 5.57,-12.44 12.44,-12.44zm0 3.55c4.91,0 8.89,3.98 8.89,8.89 0,4.91 -3.98,8.89 -8.89,8.89 -4.91,0 -8.89,-3.98 -8.89,-8.89 0,-4.91 3.98,-8.89 8.89,-8.89zm-1.52 2.13c0,-2 3.04,-2 3.04,0l0 13.53c0,2 -3.04,2 -3.04,0l0 -13.53z">
		</path>
	</g>
</svg>
