<svg xmlns="http://www.w3.org/2000/svg" xmlns:xlink="http://www.w3.org/1999/xlink" xml:space="preserve" version="1.1" style="shape-rendering:geometricPrecision;text-rendering:geometricPrecision;image-rendering:optimizeQuality;" viewBox="0 0 300 293" x="0px" y="0px" fill-rule="evenodd" clip-rule="evenodd">
	<g>
		<path fill="#6c757d" class="fil0" d="M50 0l199 0 0 41 -37 0 0 15 -17 0 0 -15 -91 0 0 15 -16 0 0 -15 -38 0 0 -41zm12 12l0 17 175 0 0 -17 -175 0z">
		</path>
		<path fill="#f8f9fa" class="fil0" d="M22 54l256 0 22 27 -300 0 22 -27zm5 12l-3 3 252 0 -3 -3 -246 0z">
		</path>
		<path fill="#adb5bd" class="fil0" d="M61 99l0 0c0,35 59,35 59,0l0 0c1,35 60,35 60,0l0 0c0,35 59,35 60,0l0 0c0,30 59,48 59,-13l-298 0c0,61 60,42 60,13z">
		</path>
		<path fill="#6c757d" class="fil0" d="M284 135l0 139 -270 0 0 -140c15,7 34,3 46,-9 16,15 45,16 60,1 16,14 44,14 60,0 16,15 45,14 60,-1 12,11 29,16 44,10zm-139 76l103 0 0 -66 -103 0 0 66zm103 10l-103 0 0 26 103 0 0 -26zm-201 -69l47 0c7,0 12,6 12,13l0 108 -72 0 0 -108c0,-7 6,-13 13,-13z">
		</path>
		<polygon fill="#2e3235" class="fil0" points="6,279 292,279 292,293 6,293 ">
		</polygon>
		<path fill="#1890ff" class="fil1" d="M151 236c-4,0 -4,-8 0,-8l40 0c4,0 4,8 0,8l-40 0z">
		</path>
		<polygon fill="#f8f9fa" class="fil1" points="174,232 174,260 168,260 168,232 ">
		</polygon>
		<path fill="#1890ff" class="fil1" d="M201 236c-4,0 -4,-8 0,-8l39 0c4,0 4,8 0,8l-39 0z">
		</path>
		<polygon fill="#f8f9fa" class="fil1" points="224,232 224,260 217,260 217,232 ">
		</polygon>
		<path fill="#1890ff" class="fil0" d="M93 207c4,0 6,2 6,4 0,2 -1,3 -3,4l0 13c2,1 3,2 3,4 0,2 -2,4 -6,4 -3,0 -5,-2 -5,-4 0,-2 1,-3 3,-4l0 -13c-2,-1 -3,-2 -3,-4 0,-2 2,-4 5,-4z">
		</path>
		<polygon fill="#adb5bd" class="fil1" points="68,163 45,186 40,180 62,158 ">
		</polygon>
		<polygon fill="#adb5bd" class="fil1" points="95,166 46,215 40,210 90,160 ">
		</polygon>
		<polygon fill="#adb5bd" class="fil1" points="182,153 155,180 150,174 176,148 ">
		</polygon>
		<polygon fill="#adb5bd" class="fil1" points="208,154 156,206 151,200 202,148 ">
		</polygon>
	</g>
</svg>
