<svg xmlns="http://www.w3.org/2000/svg" viewBox="0 0 128 128" x="0px" y="0px">
	<g>
		<path fill="#1890ff" d="M68.183,67.241c.161-.24.322-.474.483-.7l.415-.59H68.5a33.6,33.6,0,0,0-4.657-3.368l-.336-.1-.2.264c-.217.285-.434.571-.646.857l-.236.318.33.218c.611.4,1.237.786,1.863,1.167.969.591,1.971,1.2,2.88,1.879a.625.625,0,0,1,.084.089l.32.394Z">
		</path>
		<path fill="#1890ff" d="M70.332,64.263l-.315-.221a7.122,7.122,0,0,1-.973-.875,7.559,7.559,0,0,0-1.185-1.038l-.648-.419c-.581-.373-1.182-.757-1.729-1.183l-.3-.23-1.334,1.72.37.216a35.291,35.291,0,0,1,4.628,3.373l.305.255Z">
		</path>
		<path fill="#1890ff" d="M67.74,67.844l-.416-.178c-.935-.7-1.943-1.315-2.917-1.909-.667-.406-1.335-.813-1.983-1.249l-.336-.148L61.2,65.548l.27.229a36.44,36.44,0,0,0,3.14,2.3c.579.393,1.158.786,1.724,1.2l.311.226.817-1.2-.265-.278.311.21Z">
		</path>
		<path fill="#1890ff" d="M66.368,69.906l-.3-.219c-.551-.4-1.114-.781-1.676-1.164-1.072-.73-2.179-1.484-3.182-2.326l-.3-.254-.238.314c-.231.3-.468.611-.7.916l-.231.3.3.23c.573.442,1.129.934,1.668,1.409a19.811,19.811,0,0,0,3.086,2.382l.284.166.2-.261c.3-.389.592-.782.882-1.186Z">
		</path>
		<path fill="#1890ff" d="M96.851,16.826l.009.145a1.5,1.5,0,0,0,.293.8.646.646,0,0,0,.459.278h.024a.549.549,0,0,0,.4-.189,1.023,1.023,0,0,0,.278-.972.97.97,0,0,0-.7-.669l-.241-.068Z">
		</path>
		<path fill="#1890ff" d="M57.18,70.55a.652.652,0,0,1-.261-.094c-2.026-1.23-4.837,1.813-5.568,3.339-1.324,2.752.173,6.254,2.732,7.791,2.09,1.259,5.355,1.813,7.089-.41,1.783-2.293,1.319-4.861,1.067-7.524-1.6-1.117-3.1-2.465-4.984-3.068C57.23,70.574,57.205,70.559,57.18,70.55Z">
		</path>
		<path fill="#1890ff" d="M102.377,9.878a1.389,1.389,0,0,0,.269.028,1.139,1.139,0,0,0,.393-.068.756.756,0,0,0,.562-.594.871.871,0,0,0-.42-.806l-.316-.231-.218.325c-.17.255-.343.511-.516.762l-.176.257.311.3Z">
		</path>
		<path fill="#1890ff" d="M100.237,8.338h0a5.392,5.392,0,0,0,.839.2l.511.065-.128-.691a6.192,6.192,0,0,0-.228-.961.735.735,0,0,0-.464-.469,1.287,1.287,0,0,0-1.054.215.809.809,0,0,0-.457.8C99.334,8.013,99.969,8.257,100.237,8.338Z">
		</path>
		<path fill="#1890ff" d="M53.238,99.631a10.415,10.415,0,0,0,2.045-2.455c-3.418-2.089-6.14-5.187-9.544-7.291-2.628-1.625-5.429-3.014-7.652-5.187-.716.919-1.907,2.494-.78,3.127a8.6,8.6,0,0,1,1.442.958c.578.484.8,1.388,1.225,1.991a17.767,17.767,0,0,0,8.932,6.442A17.406,17.406,0,0,1,53.238,99.631Zm-7.261-8.012c2.573,1.758,4.584,3.324,4.45,3.517s-2.341-1.057-4.93-2.826c-2.6-1.8-4.446-3.537-4.312-3.71C41.333,88.4,43.427,89.86,45.977,91.619Zm-4.669.143c-.025-.03-.054-.054-.084-.084a.624.624,0,0,1,.884-.879c.025.024.055.054.084.079A.625.625,0,0,1,41.308,91.762Zm1.275.988c0-.01-.119-.124-.035-.069a.633.633,0,0,1-.227-.85.625.625,0,0,1,.855-.227,1.482,1.482,0,0,1,.291.262.638.638,0,0,1,0,.884A.624.624,0,0,1,42.583,92.75Zm2.035,1.111a.631.631,0,0,1-.879,0c-.045-.034-.154-.113-.168-.123a.628.628,0,0,1,0-.884.644.644,0,0,1,.869-.01c.035.025.163.123.178.133A.624.624,0,0,1,44.618,93.861Zm.647.964a1.065,1.065,0,0,1-.306-.307.622.622,0,0,1,.222-.854.612.612,0,0,1,.776.133C46.525,94.247,45.922,95.235,45.265,94.825Zm1.067.849c-.054-.059-.108-.113-.168-.167a.624.624,0,0,1,.884-.88l.163.163A.624.624,0,0,1,46.332,95.674Zm1.853.534c-.045-.04-.084-.084-.124-.124a.624.624,0,0,1,.879-.884l.124.124A.624.624,0,0,1,48.185,96.208Z">
		</path>
		<path fill="#1890ff" d="M99.924,12.6l-.139.194c-.053.073-.1.151-.157.23l-.063.087v.113a.982.982,0,0,0,.051.6.879.879,0,0,0,.359.369.672.672,0,0,0,.4.117c.029,0,.062,0,.1,0a.755.755,0,0,0,.175-.042h.089l.11-.107a.786.786,0,0,0,.257-.818,1.161,1.161,0,0,0-.939-.7Z">
		</path>
		<path fill="#1890ff" d="M75.386,56.763l.308.258L77,55.239l-.346-.214a53.924,53.924,0,0,1-4.533-3.109l-.3-.229-.228.3c-.316.41-.631.819-.951,1.228l-.3.386.45.191A18.164,18.164,0,0,1,75.386,56.763Z">
		</path>
		<path fill="#1890ff" d="M76.937,54.613l.4.165,1.155-1.565L78.145,53a16.662,16.662,0,0,1-1.859-1.4,13.426,13.426,0,0,0-2.615-1.824l-.275-.133-.416.539c-.209.272-.419.546-.632.817l-.234.3.3.231A51.186,51.186,0,0,0,76.937,54.613Z">
		</path>
		<path fill="#1890ff" d="M73.527,59.36l.3.189,1.577-2.13-.267-.227a17.168,17.168,0,0,0-4.686-3.022l-.381-.21-.2.258q-.444.583-.9,1.168l-.206.267.243.233A28.916,28.916,0,0,0,73.527,59.36Z">
		</path>
		<path fill="#1890ff" d="M94.835,16.942c.129,0,.248-.006.347-.012l.457-.028-.118-.443c-.037-.14-.067-.281-.1-.422-.044-.2-.088-.4-.149-.6a1.863,1.863,0,0,0-.227-.574l-.076-.1-.228-.125-.158.056a2.111,2.111,0,0,0-1.111,1.061.718.718,0,0,0,.069.641A1.454,1.454,0,0,0,94.835,16.942Z">
		</path>
		<path fill="#1890ff" d="M70.19,60.2a14.153,14.153,0,0,1,1.8,1.172l.307.25,1.228-1.679-.335-.215a29.658,29.658,0,0,1-4.425-3.4l-.336-.242-1.1,1.43-.211.25.235.233A9.321,9.321,0,0,0,70.19,60.2Z">
		</path>
		<path fill="#1890ff" d="M62.992,73.164l.218.5.389-.384c.293-.288.576-.587.849-.9l.293-.335-.38-.232a20.393,20.393,0,0,1-2.811-2.206c-.588-.518-1.2-1.055-1.836-1.542l-.291-.22-.229.284c-.356.446-.724.877-1.1,1.3l-.337.386.469.2a17.706,17.706,0,0,1,3.335,2.081c.441.322.881.643,1.331.948A.258.258,0,0,1,62.992,73.164Z">
		</path>
		<path fill="#1890ff" d="M55.526,86.066c-1.1.978-4.516,3.873-1.71,4.772a15.934,15.934,0,0,1,2.539.929c2.713,1.408,5.607,4.09,8.487,1.161,1.611-1.64,2.288-4.491,2.792-6.7.528-2.332,1.032-5.187-.406-7.257a7.758,7.758,0,0,1-1.62,4.091A10.064,10.064,0,0,1,55.526,86.066Z">
		</path>
		<path fill="#1890ff" d="M64.457,73.647c-.237.242-.474.479-.721.7a.734.734,0,0,1-.178.113c.291,3.458.277,6.882-3.142,8.867-2.737,1.6-6.807.149-8.675-2.148-2.425-2.984-2.894-6.156-.587-9.327,1.225-1.68,3.882-3.572,6.017-2.658a.453.453,0,0,1,.059-.084c.41-.454.8-.919,1.19-1.393-2.257-.316-4.653-.435-6.639.919-2.208,1.507-4.021,3.828-3.962,6.644a9.814,9.814,0,0,0,5.819,8.779c3.241,1.486,7.524,1.7,10.251-.993C65.885,81.1,67.342,75.534,64.457,73.647Z">
		</path>
		<path fill="#1890ff" d="M65.784,60.131c.462.359.953.672,1.428.974.382.244.765.488,1.134.756a7.523,7.523,0,0,1,.864.8,7.053,7.053,0,0,0,1.11.988l.389.259.169-.435a.292.292,0,0,1,.112-.134l.1-.093c.231-.319.467-.634.7-.949l.194-.349-.339-.219a16.34,16.34,0,0,0-1.987-1.35,10.833,10.833,0,0,1-2.524-1.892l-.3-.334L65.489,59.9Z">
		</path>
		<path fill="#1890ff" d="M97.131,12.53l0,0a3.978,3.978,0,0,0,.565.162c.1.024.193.045.272.07l.486.152.006-.689a2.065,2.065,0,0,0-.344-1.6.729.729,0,0,0-.622-.178,1.247,1.247,0,0,0-.991.886A.934.934,0,0,0,97.131,12.53Z">
		</path>
		<path fill="#1890ff" d="M91.516,32.089a9.8,9.8,0,0,0-2.794-1.875l-.261-.1-.17.222c-.612.8-1.224,1.595-1.842,2.395l-.181.235.187.23a8.794,8.794,0,0,0,2.4,1.875,11.99,11.99,0,0,1,1.63,1.117l.308.265,2.3-3.128-.312-.221C92.349,32.8,91.944,32.455,91.516,32.089Z">
		</path>
		<path fill="#1890ff" d="M94.848,28.473a11.782,11.782,0,0,0-3.1-2.009l-.345-.2-.524.687q-.906,1.189-1.817,2.377l-.282.369.419.2a11.832,11.832,0,0,1,2.4,1.67c.448.37.912.751,1.4,1.093l.075.119h.4l.113-.156c.365-.508.727-1.022,1.092-1.537.343-.488.688-.977,1.037-1.462l.212-.3-.288-.221C95.377,28.9,95.112,28.687,94.848,28.473Z">
		</path>
		<path fill="#1890ff" d="M97.407,24.819c-.239-.259-.481-.521-.753-.763A9.994,9.994,0,0,0,95.143,23c-.185-.113-.37-.226-.551-.343l-.291-.188-2.617,3.436.434.192a14,14,0,0,1,3,1.986c.264.208.527.417.8.622l.3.23.226-.306c.668-.9,1.288-1.694,1.9-2.417l.249-.295-.3-.241A7.959,7.959,0,0,1,97.407,24.819Z">
		</path>
		<path fill="#1890ff" d="M88.381,35.323a8.657,8.657,0,0,1-2.123-1.606l-.3-.345-2.245,2.916.428.2a12.558,12.558,0,0,1,2.4,1.584c.492.381,1,.775,1.6,1.175l.3.418,2.056-2.8-.249-.227A11.744,11.744,0,0,0,88.381,35.323Z">
		</path>
		<path fill="#1890ff" d="M86.43,38.571A10.15,10.15,0,0,0,83.638,36.8l-.257-.094-1.744,2.257.227.234a17.483,17.483,0,0,0,4.164,3.2l.288.156.194-.263q.765-1.038,1.522-2.077l.172-.37-.351-.211A16.4,16.4,0,0,1,86.43,38.571Z">
		</path>
		<path fill="#1890ff" d="M98.759,24.135c-.225-.21-.435-.432-.647-.655-.148-.156-.3-.313-.45-.466a5.45,5.45,0,0,0-2.452-1.539l-.283-.079-.145.256a1.515,1.515,0,0,0-.067.142l-.121.288.26.171c.227.149.46.287.693.425a7.969,7.969,0,0,1,1.29.882,9.016,9.016,0,0,1,.7.714,7.449,7.449,0,0,0,1.048,1.01l.372.276.193-.421C99.354,24.683,99,24.354,98.759,24.135Z">
		</path>
		<path fill="#1890ff" d="M105.465,16.4l-.031-.112-.446-.2-.127.041a.515.515,0,0,0-.3.246,1.481,1.481,0,0,0,.155,1.176.738.738,0,0,0,.571.224,1.476,1.476,0,0,0,.286-.029l.373-.073-.077-.372a1.983,1.983,0,0,0-.108-.369A2.078,2.078,0,0,0,105.465,16.4Z">
		</path>
		<path fill="#1890ff" d="M112.261,10.249c-.626-.386-1.282-.744-1.943-1.1a13.866,13.866,0,0,1-4.881-3.664l-.3-.412-.306.407q-.744.99-1.459,2.01l-.218.31.313.215A1.472,1.472,0,0,1,104,8.63a1.226,1.226,0,0,1-.558,1.569,1.839,1.839,0,0,1-1.547.045l-.3-.151-1.333,1.994.42.176a1.693,1.693,0,0,1,.7.529,1.318,1.318,0,0,1-.214,1.73,1.269,1.269,0,0,1-1.5.062,1.637,1.637,0,0,1-.325-.312l-.314-.4-.288.416c-.245.352-.49.7-.744,1.042l-.254.341.37.209a1.42,1.42,0,0,1,.716,1.1,1.5,1.5,0,0,1-.5,1.29.927.927,0,0,1-.767.273,1.405,1.405,0,0,1-.911-.707l-.27-.44-.515.605c-.081.1-.163.2-.248.292l-.092.107v.141c0,.606-.015,1.467-.089,2.2v.262l.247.09a7.575,7.575,0,0,1,2.65,1.937c.205.2.413.4.628.6l.162.149a4.306,4.306,0,0,1,.4.4l.112.133h.224l.043-.01a5.948,5.948,0,0,0,2.431-1.292l.538-.453-.675-.2a1.781,1.781,0,0,1-.878-.581,1.275,1.275,0,0,1-.118-1.7,1.622,1.622,0,0,1,1.183-.452,1.017,1.017,0,0,1,.768.375,2.452,2.452,0,0,1,.43.823l.214.707.444-.59c.446-.592.873-1.213,1.289-1.817l.691-1-.812.085a1.038,1.038,0,0,1-1.125-.425,1.638,1.638,0,0,1-.054-1.8,1.151,1.151,0,0,1,.806-.378.926.926,0,0,1,.684.321,2.674,2.674,0,0,1,.6,1.1l.192.725.465-.59q.822-1.043,1.647-2.072l.392-.486L108.4,14.5a1.375,1.375,0,0,1-.983-.883,1.672,1.672,0,0,1-.106-.473h.493a1.208,1.208,0,0,0,.1.374.793.793,0,0,0,.691.516.914.914,0,0,0,.2-.025h.3l.063-.3a1.241,1.241,0,0,0-.172-.9.913.913,0,0,0-.484-.394l-.072-.018a.578.578,0,0,0-.352.027l-.757.3a1.08,1.08,0,0,1,.4-.667.923.923,0,0,1,.767-.158,1.446,1.446,0,0,1,.937.657,2.068,2.068,0,0,1,.176.431l.19.678.457-.537c.709-.834,1.391-1.588,2.083-2.3l.324-.336Z">
		</path>
		<path fill="#1890ff" d="M81.628,39.672l-.3-.3-.637.829q-.559.727-1.124,1.455L79.3,42l.38.213a11.027,11.027,0,0,1,1.868,1.434,11.992,11.992,0,0,0,2.185,1.645l.308.371,1.978-2.7-.372-.206A17.825,17.825,0,0,1,81.628,39.672Z">
		</path>
		<path fill="#1890ff" d="M104.46,22.256l-.384-.008v.383a1.984,1.984,0,0,0,.412,1.446.875.875,0,0,0,.61.231l.085,0a.906.906,0,0,0,.743-.362.947.947,0,0,0-.015-.856A1.474,1.474,0,0,0,104.46,22.256Z">
		</path>
		<path fill="#1890ff" d="M109.3,18.829a1.959,1.959,0,0,0-.554-.436h0a2.478,2.478,0,0,0-1.133-.3h-.392l.017.392a1.855,1.855,0,0,0,.583,1.425.731.731,0,0,0,.457.148,1.081,1.081,0,0,0,.252-.031,1.394,1.394,0,0,0,.889-.637l.254-.536h-.354Z">
		</path>
		<path fill="#1890ff" d="M77.263,45.207l-.285-.2-1.442,1.869.263.232a30.731,30.731,0,0,0,4.424,3.171l.292.178L81.3,49.39c.171-.233.343-.466.51-.7l.162-.31-.263-.224A15.475,15.475,0,0,0,77.263,45.207Z">
		</path>
		<path fill="#1890ff" d="M111.639,14.268a1.789,1.789,0,0,0-1.3-.111l-.293.142v.308a1.977,1.977,0,0,0,.71,1.407,1.216,1.216,0,0,0,.694.233.791.791,0,0,0,.247-.037.625.625,0,0,0,.416-.44A1.437,1.437,0,0,0,111.639,14.268Z">
		</path>
		<path fill="#1890ff" d="M75.538,47.524l-.3-.265-.243.319c-.212.277-.426.552-.639.826l-.649.838.4.206a13.337,13.337,0,0,1,2.337,1.663A16.67,16.67,0,0,0,78.5,52.633l.292.174.265-.36c.31-.422.621-.843.926-1.264l.238-.329-.345-.211A31.338,31.338,0,0,1,75.538,47.524Z">
		</path>
		<path fill="#1890ff" d="M78.087,78.1c-2.016-.983-4.269-1.24-6.2-2.455A7.235,7.235,0,0,1,68.449,70.2a4.783,4.783,0,0,1,.217-2.184c-1.067,1.547-2.149,3.246-3.374,4.7a5.939,5.939,0,0,1,2,4.614.575.575,0,0,1,.36.183c2.46,2.569,1.892,6.526,1.023,9.672-.855,3.088-1.789,7.03-5.335,8.028a5.368,5.368,0,0,1-4.57-.484,20.136,20.136,0,0,0-3.043-1.892c-.909-.4-1.981-.588-2.865-1.052-3.157-1.64-.5-4.407,1.309-6.151-.217-.084-.435-.173-.652-.271-4.323-1.986-7.978-6.66-6.778-11.684a9.554,9.554,0,0,1,5.074-6.5c2.44-1.106,4.786-1,7.395-.607a.493.493,0,0,1,.1.025c1.353-1.725,2.633-3.523,3.961-5.242.934-1.2,1.858-2.411,2.791-3.616-3.477-3.236-9.326-6.753-13.96-4.174-3.6,2.01-5.74,5.71-7.914,9.075a27.225,27.225,0,0,1-9.677,9.544c-4.748,2.578-10.113,3.176-13.729,7.592-4.045,4.94-6.772,11.7-5.127,18.125s6.57,9.861,11.49,13.783c9.1,7.247,22.24,17,32.362,5.637a30.738,30.738,0,0,0,6.348-10.4A54.021,54.021,0,0,0,67.5,98.752,18.128,18.128,0,0,1,70.192,91.1c1.339-1.9,3.587-3.063,5.34-4.52C77.41,85.029,82.1,80.054,78.087,78.1ZM27.056,91.377a21.725,21.725,0,0,1-2.86,3.151c-1.225,1.117-2.381,2.055-3.231,2.712s-1.408,1.043-1.487.954.341-.613,1.092-1.388,1.853-1.789,3.058-2.89,2.243-2.139,2.974-2.91c.716-.78,1.171-1.279,1.274-1.21S27.679,90.473,27.056,91.377Zm2.381-11.293c-1.319,1.255-3.033,3.1-4.994,5.078-3.809,4.056-6.926,7.351-7.1,7.188-.163-.148,2.663-3.68,6.5-7.761,1.976-1.991,3.765-3.784,5.2-4.94a10.488,10.488,0,0,1,2.381-1.788A10.866,10.866,0,0,1,29.437,80.084Zm17.952-18c2.628-3.739,5.108-6.511,5.271-6.377.188.163-1.976,3.137-4.589,6.861-2.613,3.74-4.945,6.61-5.128,6.477S44.786,65.822,47.389,62.087ZM39.466,92.2c-1.023-1.235-1.389-2.357-2.787-3.3-.355-.242-.919-.554-1.032-1.008-.44-1.764.85-2.944,1.749-4.342a.613.613,0,0,1,.746-.247.548.548,0,0,1,.484.182c2.608,2.727,6.185,4.14,9.2,6.343,2.855,2.095,5.4,4.738,8.477,6.511a.818.818,0,0,1,.134.1.644.644,0,0,1,.212.815,11,11,0,0,1-2.781,3.488.608.608,0,0,1-.321.153.557.557,0,0,1-.623.005c-1.442-.879-2.672-2.05-4.347-2.49a13.384,13.384,0,0,1-2.959-1.057A21.3,21.3,0,0,1,39.466,92.2Zm13.9,25.544c-1.418,1.478-2.781,2.342-2.925,2.184-.168-.178.978-1.359,2.327-2.762,1.363-1.442,2.613-2.5,2.776-2.341S54.745,116.289,53.362,117.746Zm-.968-5.221c-3.266,4.189-6.057,7.464-6.24,7.326s2.317-3.651,5.578-7.835c3.141-4.263,5.844-7.613,6.031-7.479S55.55,108.242,52.394,112.525Z">
		</path>
		<path fill="#1890ff" d="M81.407,44.156a11.075,11.075,0,0,0-2.142-1.607l-.28-.147-.192.249c-.42.544-.841,1.088-1.256,1.632l-.3.385.447.188a17.189,17.189,0,0,1,4.31,2.9l.305.258.905-1.229.671-.965-.488-.163A10.567,10.567,0,0,1,81.407,44.156Z">
		</path>
		<path fill="#1890ff" d="M102.043,20.176a.936.936,0,0,0-.561.357.557.557,0,0,0-.021.532,1.287,1.287,0,0,0,.357.535,1.238,1.238,0,0,0,.844.34,1.3,1.3,0,0,0,.23-.021l.3-.054,0-.309a1.72,1.72,0,0,0-.359-1.138A.669.669,0,0,0,102.043,20.176Z">
		</path>
	</g>
</svg>
