<svg xmlns="http://www.w3.org/2000/svg" version="1.1" x="0px" y="0px" viewBox="0 0 64 64" style="enable-background:new 0 0 64 64;" xml:space="preserve">
	<g>
		<path fill="#adb5bd" d="M46,45c-1.21,0-2.387-0.294-3.449-0.824L36.762,49h18.475l-5.789-4.824C48.387,44.706,47.21,45,46,45z">
		</path>
		<path fill="#adb5bd" d="M20,29h24c1.654,0,3-1.346,3-3V6c0-1.654-1.346-3-3-3H20c-1.654,0-3,1.346-3,3v20C17,27.654,18.346,29,20,29z M35,5   c4.411,0,8,3.589,8,8h-2c0-3.309-2.691-6-6-6V5z M35,9c2.206,0,4,1.794,4,4h-2c0-1.103-0.897-2-2-2V9z M22.193,11.392L23.586,10   c1.291-1.29,3.537-1.29,4.828,0l1.763,1.764C30.707,12.293,31,12.999,31,13.75v0.132c0,1.071-0.595,2.034-1.553,2.513   C29.171,16.532,29,16.81,29,17.118v0.132c0,0.216,0.084,0.419,0.237,0.572l0.939,0.941C30.33,18.916,30.533,19,30.749,19h0.133   c0.309,0,0.586-0.171,0.724-0.447C32.085,17.595,33.048,17,34.118,17h0.133c0.75,0,1.455,0.292,1.986,0.822L38,19.586   c0.645,0.644,1,1.501,1,2.414s-0.355,1.77-1,2.415l-1.393,1.392C35.839,26.576,34.814,27,33.726,27   c-0.629,0-1.259-0.149-1.822-0.43L30.8,26.018c-4.239-2.12-7.603-5.687-9.47-10.044C21.111,15.463,21,14.923,21,14.369   C21,13.202,21.435,12.151,22.193,11.392z">
		</path>
		<path fill="#adb5bd" d="M51.176,43.012L57,47.865V36.606l-5.25,5.833C51.568,42.641,51.377,42.832,51.176,43.012z">
		</path>
		<path fill="#adb5bd" d="M31.694,24.229l1.104,0.552c0.784,0.392,1.777,0.229,2.396-0.389L36.586,23C36.854,22.733,37,22.378,37,22   s-0.146-0.733-0.414-1l-1.763-1.764C34.67,19.084,34.467,19,34.251,19h-0.133c-0.309,0-0.586,0.171-0.724,0.447   C32.915,20.405,31.952,21,30.882,21h-0.133c-0.75,0-1.455-0.292-1.986-0.822l-0.939-0.941C27.293,18.707,27,18.001,27,17.25v-0.132   c0-1.071,0.595-2.034,1.553-2.513C28.829,14.468,29,14.19,29,13.882V13.75c0-0.216-0.084-0.419-0.237-0.572L27,11.414   C26.732,11.147,26.378,11,26,11s-0.732,0.147-1,0.415l-1.393,1.392C23.222,13.192,23,13.728,23,14.274   c0,0.377,0.057,0.652,0.168,0.912C24.85,19.109,27.877,22.32,31.694,24.229z">
		</path>
		<path fill="#adb5bd" d="M58,27h-9.101c-0.465,2.279-2.484,4-4.899,4H31v19c0,1.654,1.346,3,3,3h24c1.654,0,3-1.346,3-3V30   C61,28.346,59.654,27,58,27z M59,51H33V33h26V51z">
		</path>
		<path fill="#adb5bd" d="M46,43c1.624,0,3.178-0.692,4.264-1.899L55.755,35h-19.51l5.491,6.101C42.822,42.308,44.376,43,46,43z">
		</path>
		<path fill="#adb5bd" d="M40.25,42.439L35,36.606v11.259l5.823-4.853C40.623,42.832,40.432,42.641,40.25,42.439z">
		</path>
		<path fill="#adb5bd" d="M23.291,51.257L17.723,61H24v-4h2v4h2.962C28.652,56.949,26.471,53.422,23.291,51.257z">
		</path>
		<path fill="#adb5bd" d="M3.038,61H6v-4h2v4h6.277l-5.568-9.743C5.529,53.422,3.348,56.949,3.038,61z">
		</path>
		<circle fill="#adb5bd" cx="16" cy="41" r="6">
		</circle>
		<path fill="#adb5bd" d="M18.365,49.221C17.597,49.08,16.808,49,16,49s-1.597,0.08-2.365,0.221L16,51.586L18.365,49.221z">
		</path>
		<polygon fill="#adb5bd" points="16,54.414 13.974,56.44 16,59.985 18.026,56.44  ">
		</polygon>
		<path fill="#adb5bd" d="M10.444,50.262l2.502,4.378l1.64-1.64l-3.159-3.159C11.092,49.967,10.765,50.109,10.444,50.262z">
		</path>
		<path fill="#adb5bd" d="M21.556,50.262c-0.321-0.153-0.648-0.294-0.983-0.421L17.414,53l1.64,1.64L21.556,50.262z">
		</path>
	</g>
</svg>
