<svg xmlns="http://www.w3.org/2000/svg" xmlns:xlink="http://www.w3.org/1999/xlink" version="1.1" x="0px" y="0px" viewBox="0 0 64 64" style="enable-background:new 0 0 64 64;" xml:space="preserve">
	<g>
		<circle fill="#1890ff" cx="56" cy="8" r="5">
		</circle>
		<rect fill="#adb5bd" x="23" y="30" width="2" height="12">
		</rect>
		<path fill="#6c757d" d="M29,32h6v4.453C37.934,33.118,42.22,31,47,31c2.916,0,5.643,0.797,8,2.165V14.92c-1.183-0.17-2.269-0.636-3.184-1.322   l-6.117,6.116C45.887,20.106,46,20.538,46,21c0,1.654-1.346,3-3,3s-3-1.346-3-3c0-0.462,0.113-0.894,0.301-1.285l-2.015-2.015   C37.894,17.887,37.462,18,37,18s-0.894-0.113-1.285-0.301l-5.015,5.015C30.887,23.106,31,23.538,31,24c0,1.654-1.346,3-3,3   s-3-1.346-3-3s1.346-3,3-3c0.462,0,0.894,0.113,1.285,0.301l5.015-5.015C34.113,15.894,34,15.462,34,15c0-1.654,1.346-3,3-3   s3,1.346,3,3c0,0.462-0.113,0.894-0.301,1.285l2.015,2.015C42.106,18.113,42.538,18,43,18s0.894,0.113,1.285,0.301l6.116-6.116   c-0.488-0.651-0.868-1.386-1.107-2.185H3v36h28.051c0.042-0.678,0.117-1.347,0.241-2H29V32z M9,12h14v2H9V12z M9,16h14v2H9V16z    M9,20h14v2H9V20z M9,24h14v2H9V24z M5,12h2v2H5V12z M5,16h2v2H5V16z M5,20h2v2H5V20z M5,24h2v2H5V24z M11,44H5V34h6V44z M19,44h-6   v-8h6V44z M27,44h-6V28h6V44z">
		</path>
		<path fill="#1890ff" d="M48,33.051v4c5.046,0.504,9,4.773,9,9.949c0,1.463-0.324,2.85-0.891,4.104l3.469,2.003C60.48,51.259,61,49.191,61,47   C61,39.618,55.253,33.567,48,33.051z">
		</path>
		<rect fill="#adb5bd" x="7" y="36" width="2" height="6">
		</rect>
		<circle fill="#1890ff" cx="43" cy="21" r="1">
		</circle>
		<rect fill="#adb5bd" x="15" y="38" width="2" height="4">
		</rect>
		<circle fill="#1890ff" cx="37" cy="15" r="1">
		</circle>
		<path fill="#adb5bd" d="M33,34h-2v8h0.811c0.314-0.951,0.71-1.865,1.189-2.729V34z">
		</path>
		<path fill="#1890ff" d="M37,47c0-5.176,3.954-9.446,9-9.949v-4C38.747,33.567,33,39.618,33,47c0,2.191,0.52,4.259,1.422,6.107l3.469-2.003   C37.324,49.85,37,48.463,37,47z">
		</path>
		<path fill="#2e3235" d="M39,47c0,4.411,3.589,8,8,8s8-3.589,8-8s-3.589-8-8-8S39,42.589,39,47z M47,41c3.309,0,6,2.691,6,6s-2.691,6-6,6   s-6-2.691-6-6S43.691,41,47,41z">
		</path>
		<path fill="#1890ff" d="M47,57c-3.336,0-6.287-1.648-8.105-4.166l-3.483,2.011C37.932,58.557,42.186,61,47,61s9.068-2.443,11.588-6.155   l-3.483-2.011C53.287,55.352,50.336,57,47,57z">
		</path>
		<circle fill="#1890ff" cx="28" cy="24" r="1">
		</circle>
		<circle fill="#f8f9fa" cx="47" cy="47" r="4">
		</circle>
	</g>
</svg>
