<svg xmlns="http://www.w3.org/2000/svg" viewBox="0 0 26.458333 26.458334" version="1.1" x="0px" y="0px"><g transform="translate(0,-270.54165)"><path style="color:#000000;font-style:normal;font-variant:normal;font-weight:normal;font-stretch:normal;font-size:medium;line-height:normal;font-family:sans-serif;font-variant-ligatures:normal;font-variant-position:normal;font-variant-caps:normal;font-variant-numeric:normal;font-variant-alternates:normal;font-feature-settings:normal;text-indent:0;text-align:start;text-decoration:none;text-decoration-line:none;text-decoration-style:solid;text-decoration-color:#000000;letter-spacing:normal;word-spacing:normal;text-transform:none;writing-mode:lr-tb;direction:ltr;text-orientation:mixed;dominant-baseline:auto;baseline-shift:baseline;text-anchor:start;white-space:normal;shape-padding:0;clip-rule:nonzero;display:inline;overflow:visible;visibility:visible;opacity:1;isolation:auto;mix-blend-mode:normal;color-interpolation:sRGB;color-interpolation-filters:linearRGB;solid-color:#000000;solid-opacity:1;vector-effect:none;fill:#000000;fill-opacity:1;fill-rule:nonzero;stroke:none;stroke-width:0.52916664;stroke-linecap:round;stroke-linejoin:round;stroke-miterlimit:4;stroke-dasharray:none;stroke-dashoffset:0;stroke-opacity:1;marker:none;color-rendering:auto;image-rendering:auto;shape-rendering:auto;text-rendering:auto;enable-background:accumulate" d="m 2.3802167,272.12915 c -0.1461231,5.9e-4 -0.2641071,0.11949 -0.2635498,0.26562 v 22.75416 c 5.821e-4,0.14531 0.1182332,0.26297 0.2635498,0.26355 H 24.07605 c 0.146123,5.6e-4 0.265033,-0.11743 0.265617,-0.26355 v -22.75416 c 5.6e-4,-0.14693 -0.118686,-0.26618 -0.265617,-0.26562 z m 6.8331746,1.05833 c 0.1806001,0.005 0.286979,0.2063 0.190686,0.36019 l -0.1121378,0.18707 c 0.049408,0.0446 0.077596,0.10835 0.077514,0.17518 v 4.69945 c -2.27e-4,0.12927 -0.1041218,0.23409 -0.2325439,0.23462 H 4.4658774 c -0.1284221,-5.3e-4 -0.2323169,-0.10535 -0.2325439,-0.23462 v -4.69945 c -3.439e-4,-0.12967 0.1037207,-0.23512 0.2325439,-0.23564 H 8.781893 l 0.2201418,-0.37001 c 0.03879,-0.0671 0.1080352,-0.11067 0.1850014,-0.11627 0.00916,-9.1e-4 0.018529,-3.7e-4 0.026355,-5.2e-4 z m -4.5129028,0.95653 v 4.2292 H 8.902299 v -3.98425 l -1.5978351,2.67994 c -0.077173,0.12926 -0.2535981,0.15295 -0.3617352,0.0486 L 5.775875,275.98783 c -0.2422827,-0.21691 0.1000352,-0.57397 0.3240114,-0.33796 l 0.9544634,0.92449 1.4474569,-2.43035 z m 6.5127805,0.47026 c 3.583866,-10e-6 7.172442,0 10.758001,0 0.324033,-0.0133 0.324033,0.48301 0,0.46974 H 11.237558 c -0.299482,0.004 -0.322519,-0.44199 -0.02429,-0.46974 z m 10e-4,2.8205 c 3.583582,0.001 7.171736,5.3e-4 10.756962,5.3e-4 0.324038,-0.0133 0.324038,0.48302 0,0.46974 H 11.237555 c -0.299477,0.004 -0.322514,-0.44199 -0.02429,-0.46974 3.44e-4,-1.8e-4 6.88e-4,-3.5e-4 10e-4,-5.3e-4 z m -6.7484254,3.75946 h 4.6710326 c 0.1290244,5.3e-4 0.233167,0.10629 0.2325439,0.23616 v 4.69946 c -5.027e-4,0.12906 -0.1043212,0.23357 -0.2325439,0.23409 H 4.4658774 c -0.1282226,-5.2e-4 -0.2320353,-0.10503 -0.2325439,-0.23409 v -4.69946 c -6.35e-4,-0.12987 0.1035196,-0.23563 0.2325439,-0.23616 z m 0.234611,0.47026 v 4.22971 H 8.902299 v -4.22971 z m 6.5127804,0.46973 c 3.583867,-1e-5 7.172441,0 10.758,0 0.311798,0 0.311798,0.47078 0,0.47078 h -10.73368 c -0.311798,0.0163 -0.336086,-0.45448 -0.02429,-0.47078 z m 10.783838,2.81999 c 0.318077,0.0107 0.291464,0.49398 -0.02584,0.46922 H 11.237554 c -0.289518,-0.006 -0.311622,-0.43199 -0.02429,-0.46819 3.752634,-0.0101 7.569315,0.008 10.783838,-10e-4 z m -17.5312276,4.23023 h 4.6710327 c 0.1290243,5.3e-4 0.233167,0.10629 0.2325439,0.23616 v 4.69946 c -5.086e-4,0.12906 -0.1043213,0.23357 -0.2325439,0.23409 H 4.4658774 c -0.1282226,-5.2e-4 -0.2320353,-0.10503 -0.2325439,-0.23409 v -4.69946 c -6.35e-4,-0.12987 0.1035196,-0.23563 0.2325439,-0.23616 z m 0.2346111,0.47077 v 4.22868 H 8.902299 v -4.22868 z m 6.5127805,0.46974 c 3.583867,-1e-5 7.172441,0 10.758,0 0.311456,0 0.311456,0.47026 0,0.47026 h -10.73368 c -0.311456,0.0163 -0.335744,-0.45396 -0.02429,-0.47026 z m 0.02429,2.81895 H 21.97127 c 0.311455,0 0.311455,0.47026 0,0.47026 H 11.237558 c -0.311456,0 -0.311456,-0.47026 0,-0.47026 z"></path></g></svg>