<svg xmlns="http://www.w3.org/2000/svg" viewBox="0 0 64 64" x="0px" y="0px">
	<g>
		<path fill="#adb5bd" d="M18,26v2h1a1,1,0,0,0,0-2Z" />
		<path fill="#adb5bd" d="M12,28h4V26H13a5.006,5.006,0,0,1-5-5,3,3,0,0,1,3-3h8V12H12a8,8,0,0,0,0,16Zm3-14h2v2H15Zm-4,0h2v2H11Z" />
		<path fill="#adb5bd" d="M56,26a1,1,0,0,0,1-1V5a1,1,0,0,0-2,0V25A1,1,0,0,0,56,26Z" />
		<rect fill="#adb5bd" x="21" y="12" width="4" height="6" />
		<path fill="#adb5bd" d="M53,23.444V6.556a80.7,80.7,0,0,1-9.725,3.405C37.433,11.631,29.719,11.933,27,11.987v6.026c2.719.054,10.433.356,16.275,2.026A80.7,80.7,0,0,1,53,23.444Z" />
		<rect fill="#adb5bd" x="6" y="42" width="52" height="2" />
		<path fill="#adb5bd" d="M9,46V56H55V46Zm41,8H14V48H50Z" />
		<rect fill="#adb5bd" x="6" y="58" width="52" height="2" />
		<rect fill="#adb5bd" x="16" y="50" width="32" height="2" />
		<path fill="#adb5bd" d="M59,34H16V30H14v4H4a1,1,0,0,0,0,2H14v4h2V36H43v5h2V36H59a1,1,0,0,0,0-2Z" />
	</g>
</svg>