<svg xmlns="http://www.w3.org/2000/svg" xmlns:xlink="http://www.w3.org/1999/xlink" xml:space="preserve" version="1.1" style="shape-rendering:geometricPrecision;text-rendering:geometricPrecision;image-rendering:optimizeQuality;" viewBox="0 0 846.66 846.66" x="0px" y="0px" fill-rule="evenodd" clip-rule="evenodd">
	<g>
		<path fill="#1890ff" d="M389.09 102.98c176.93,0 320.36,143.44 320.36,320.36 0,20.63 -1.98,40.79 -5.7,60.34 -6.77,-2.32 -13.77,-4.12 -20.96,-5.37 3.32,-17.82 5.07,-36.19 5.07,-54.97 0,-165.01 -133.76,-298.77 -298.77,-298.77 -165,0 -298.76,133.76 -298.76,298.77 0,165 133.76,298.76 298.76,298.76 54.23,0 105.08,-14.44 148.91,-39.69 3.54,6.31 7.55,12.32 12,17.98 -47.28,27.52 -102.25,43.3 -160.91,43.3 -176.92,0 -320.35,-143.43 -320.35,-320.35 0,-176.92 143.43,-320.36 320.35,-320.36zm269.81 630.81c65.73,0 119.02,-53.29 119.02,-119.02 0,-65.74 -53.29,-119.02 -119.02,-119.02 -65.74,0 -119.03,53.28 -119.03,119.02 0,65.73 53.29,119.02 119.03,119.02zm-23.51 -109.5c9.25,0 17.91,2.07 25.24,5.65 -0.09,-24.66 -0.09,-49.3 0,-73.96 0.05,-11.46 0.15,-17.27 2.46,-21.31 1.95,-3.29 12.59,-8.71 22.89,-0.44 28.03,22.52 57.09,38.69 38.19,79.18 -6.15,13.16 -26.16,3.8 -20.01,-9.36 11.05,-23.66 -5,-30.16 -21.44,-43.91 -0.02,32.27 -0.07,64.55 0.06,96.82 4.47,26.78 -24.2,42.71 -47.39,42.71 -21.65,0 -47.8,-13.31 -47.8,-37.69 0,-24.38 26.15,-37.69 47.8,-37.69zm-246.3 -278.58c42.88,0 77.64,34.76 77.64,77.63 0,42.87 -34.76,77.63 -77.64,77.63 -42.87,0 -77.63,-34.76 -77.63,-77.63 0,-42.87 34.76,-77.63 77.63,-77.63zm0 21.58c-30.95,0 -56.04,25.09 -56.04,56.05 0,30.95 25.09,56.04 56.04,56.04 30.96,0 56.05,-25.09 56.05,-56.04 0,-30.96 -25.09,-56.05 -56.05,-56.05zm0 -220.26c152.6,0 276.31,123.71 276.31,276.31 0,18.1 -1.76,35.79 -5.08,52.93l-1.42 -0.02c-76.51,0 -138.52,62.02 -138.52,138.52 0,16.54 2.9,32.4 8.22,47.1 -40.95,24 -88.62,37.77 -139.51,37.77 -152.59,0 -276.3,-123.71 -276.3,-276.3 0,-152.6 123.71,-276.31 276.3,-276.31zm0 173.37c-56.85,0 -102.93,46.09 -102.93,102.94 0,56.85 46.09,102.93 102.93,102.93 56.85,0 102.94,-46.08 102.94,-102.93 0,-56.85 -46.09,-102.94 -102.94,-102.94z">
		</path>
	</g>
</svg>
