<svg xmlns="http://www.w3.org/2000/svg" viewBox="0 0 512 512" x="0px" y="0px"><path d="M272,92.28125,253.57812,80H232a7.99539,7.99539,0,0,1-8-8V52L197.33594,32H186.66406L160,52V72a7.99539,7.99539,0,0,1-8,8H130.42188L112,92.28125v19.73437L272,112ZM192,64a8,8,0,1,1,8-8A8.00008,8.00008,0,0,1,192,64Z"></path><path d="M440,273.28906a8.0305,8.0305,0,0,0-4.03125-6.95312l-41.22656-23.55469a8.01072,8.01072,0,0,0-6.94531-.48437l-14.97754,5.99169L440,280.2793Z"></path><polygon points="82.875 425.852 94.697 416 72 416 72 448 104 448 104 429.086 93.125 438.148 82.875 425.852"></polygon><path d="M328,350.10938V296a23.71272,23.71272,0,0,1,2.52588-10.50586L318.9873,280H72a16.02085,16.02085,0,0,1-16-16V168a16.02085,16.02085,0,0,1,16-16H312a16.02085,16.02085,0,0,1,16,16v58.94629l24,11.42822V96H288v16a16.02085,16.02085,0,0,1-16,16H112a16.02085,16.02085,0,0,1-16-16V96H32V480H344V385.89062l-14.3125-28.625A16.14018,16.14018,0,0,1,328,350.10938ZM200,320H304v16H200Zm104,32v16H224V352ZM168,320h16v16H168Zm-16,32h56v16H152Zm32,56v16H168V408Zm-64,8v32a16.02085,16.02085,0,0,1-16,16H72a16.02085,16.02085,0,0,1-16-16V416a16.02085,16.02085,0,0,1,16-16h32a15.79119,15.79119,0,0,1,7.53076,1.97168L130.875,385.85156l10.25,12.29688L119.97705,415.772C119.978,415.84961,120,415.92188,120,416Zm-.02295-88.228c.001.07764.02295.14991.02295.228v32a16.02085,16.02085,0,0,1-16,16H72a16.02085,16.02085,0,0,1-16-16V328a16.02085,16.02085,0,0,1,16-16h32a15.79119,15.79119,0,0,1,7.53076,1.97168L130.875,297.85156l10.25,12.29688ZM208,456H152V440h56Zm104,0H224V440h88Zm0-32H200V408H312Z"></path><polygon points="82.875 337.852 94.697 328 72 328 72 360 104 360 104 341.086 93.125 350.148 82.875 337.852"></polygon><path d="M376,316.6875l21.65625,21.65625-11.3125,11.3125L360,323.3125V296a8,8,0,0,0-16,0v54.10938l14.3125,28.625A16.14018,16.14018,0,0,1,360,385.89062V480h64V398.42188a55.49954,55.49954,0,0,1,9.34375-30.85938A39.52769,39.52769,0,0,0,440,345.57812v-7.95263l-64-30.47608Z"></path><rect x="72" y="168" width="64" height="32"></rect><rect x="72" y="216" width="64" height="48"></rect><path d="M293.46875,232.41406,312,226.23682V216H152v48H295.57031l-7.15625-21.46875A7.99315,7.99315,0,0,1,293.46875,232.41406Z"></path><path d="M319.46875,240.60938l-13.35156,4.45312,4.39843,13.17969,32.58252,15.5122a23.75878,23.75878,0,0,1,31.69141,15.0918l93.562,44.56006,8.84375-17.6875Z"></path><rect x="152" y="168" width="160" height="32"></rect></svg>