<svg xmlns="http://www.w3.org/2000/svg" viewBox="0 0 64 64" x="0px" y="0px">
	<g>
		<rect fill="#6c757d" x="16" y="51" width="4" height="2">
		</rect>
		<circle fill="#6c757d" cx="17" cy="41" r="2">
		</circle>
		<path fill="#6c757d" d="M27.254,9.255c-.111.246-.211.5-.314.745H37.06c-.1-.249-.2-.5-.314-.745-.2-.445-.409-.86-.619-1.255H27.873C27.663,8.4,27.455,8.81,27.254,9.255Z">
		</path>
		<path fill="#6c757d" d="M20,48c0-1.7,1.164-4.134,3-4.812V20.414l-.253.253a5.926,5.926,0,0,0-1.375,3.838,20.36,20.36,0,0,1-.4,2.713c-.489,2.189-1.813,4.2-4.294,6.513L5.673,43.74A4.073,4.073,0,0,0,4,47v2H20Zm-3-3a4,4,0,1,1,4-4A4,4,0,0,1,17,45Z">
		</path>
		<polygon fill="#6c757d" points="26 57.697 27.535 60 31 60 31 55 26 55 26 57.697">
		</polygon>
		<rect fill="#6c757d" x="12" y="51" width="2" height="2">
		</rect>
		<path fill="#6c757d" d="M25,39H39V18a21.647,21.647,0,0,0-1.2-6H26.2A21.647,21.647,0,0,0,25,18Zm9-5H32V32h2Zm0-13H30V19h4Zm3,16H35V35h2ZM32,14a6.176,6.176,0,0,1,4.8,2.4l-1.6,1.2a4,4,0,0,0-6.4,0l-1.6-1.2A6.173,6.173,0,0,1,32,14Z">
		</path>
		<rect fill="#6c757d" x="8" y="51" width="2" height="2">
		</rect>
		<path fill="#6c757d" d="M32,4c-.89,0-1.885.721-2.862,2h5.724C33.885,4.721,32.89,4,32,4Z">
		</path>
		<rect fill="#6c757d" x="25" y="41" width="14" height="2">
		</rect>
		<rect fill="#6c757d" x="4" y="51" width="2" height="2">
		</rect>
		<path fill="#6c757d" d="M22,48v6a3.006,3.006,0,0,0,2,2.829V54a1,1,0,0,1,1-1h4V45H24C23.054,45,22,46.788,22,48Zm2,1h3v2H24Z">
		</path>
		<rect fill="#6c757d" x="54" y="51" width="2" height="2">
		</rect>
		<rect fill="#6c757d" x="58" y="51" width="2" height="2">
		</rect>
		<rect fill="#6c757d" x="50" y="51" width="2" height="2">
		</rect>
		<rect fill="#6c757d" x="47" y="43" width="4" height="2">
		</rect>
		<path fill="#6c757d" d="M60,47a4.089,4.089,0,0,0-1.686-3.272L47.327,33.74c-2.49-2.324-3.814-4.333-4.3-6.522a20.36,20.36,0,0,1-.4-2.713,5.926,5.926,0,0,0-1.375-3.838L41,20.414V43.188c1.836.678,3,3.113,3,4.812v1H60Zm-7-1a1,1,0,0,1-1,1H46a1,1,0,0,1-1-1V42a1,1,0,0,1,1-1h6a1,1,0,0,1,1,1Z">
		</path>
		<rect fill="#6c757d" x="44" y="51" width="4" height="2">
		</rect>
		<path fill="#6c757d" d="M40,45H35v8h4a1,1,0,0,1,1,1v2.829A3.006,3.006,0,0,0,42,54V48C42,46.788,40.946,45,40,45Zm0,6H37V49h3Z">
		</path>
		<polygon fill="#6c757d" points="33 60 36.465 60 38 57.697 38 55 33 55 33 60">
		</polygon>
		<rect fill="#6c757d" x="31" y="45" width="2" height="8">
		</rect>
	</g>
</svg>
